<svg width="494" height="100" viewBox="0 0 494 100" fill="none" xmlns="http://www.w3.org/2000/svg">
<path d="M130.24 58.2C129.08 58.2 128.107 58.0267 127.32 57.68C126.533 57.32 125.927 56.86 125.5 56.3C125.087 55.7267 124.867 55.12 124.84 54.48C124.84 54.3733 124.88 54.28 124.96 54.2C125.053 54.1067 125.16 54.06 125.28 54.06H126.3C126.46 54.06 126.58 54.1 126.66 54.18C126.74 54.26 126.793 54.3533 126.82 54.46C126.887 54.78 127.047 55.1 127.3 55.42C127.567 55.7267 127.933 55.9867 128.4 56.2C128.88 56.4 129.493 56.5 130.24 56.5C131.387 56.5 132.227 56.3 132.76 55.9C133.307 55.4867 133.58 54.94 133.58 54.26C133.58 53.7933 133.433 53.42 133.14 53.14C132.86 52.8467 132.427 52.5867 131.84 52.36C131.253 52.1333 130.493 51.8867 129.56 51.62C128.587 51.34 127.78 51.0333 127.14 50.7C126.5 50.3667 126.02 49.9533 125.7 49.46C125.393 48.9667 125.24 48.34 125.24 47.58C125.24 46.86 125.433 46.22 125.82 45.66C126.207 45.0867 126.76 44.6333 127.48 44.3C128.213 43.9667 129.1 43.8 130.14 43.8C130.967 43.8 131.687 43.9133 132.3 44.14C132.927 44.3533 133.447 44.6467 133.86 45.02C134.273 45.38 134.587 45.7733 134.8 46.2C135.013 46.6133 135.127 47.02 135.14 47.42C135.14 47.5133 135.107 47.6067 135.04 47.7C134.973 47.78 134.867 47.82 134.72 47.82H133.66C133.567 47.82 133.467 47.7933 133.36 47.74C133.267 47.6867 133.193 47.5867 133.14 47.44C133.06 46.8933 132.753 46.4333 132.22 46.06C131.687 45.6867 130.993 45.5 130.14 45.5C129.273 45.5 128.567 45.6667 128.02 46C127.487 46.3333 127.22 46.8533 127.22 47.56C127.22 48.0133 127.347 48.3933 127.6 48.7C127.853 48.9933 128.253 49.2533 128.8 49.48C129.347 49.7067 130.06 49.9467 130.94 50.2C132.007 50.4933 132.88 50.8067 133.56 51.14C134.24 51.46 134.74 51.8667 135.06 52.36C135.393 52.84 135.56 53.46 135.56 54.22C135.56 55.06 135.34 55.78 134.9 56.38C134.46 56.9667 133.84 57.42 133.04 57.74C132.253 58.0467 131.32 58.2 130.24 58.2ZM142.061 58.2C140.688 58.2 139.595 57.78 138.781 56.94C137.968 56.0867 137.521 54.9267 137.441 53.46C137.428 53.2867 137.421 53.0667 137.421 52.8C137.421 52.52 137.428 52.2933 137.441 52.12C137.495 51.1733 137.715 50.3467 138.101 49.64C138.488 48.92 139.015 48.3667 139.681 47.98C140.361 47.5933 141.155 47.4 142.061 47.4C143.075 47.4 143.921 47.6133 144.601 48.04C145.295 48.4667 145.821 49.0733 146.181 49.86C146.541 50.6467 146.721 51.5667 146.721 52.62V52.96C146.721 53.1067 146.675 53.22 146.581 53.3C146.501 53.38 146.395 53.42 146.261 53.42H139.341C139.341 53.4333 139.341 53.46 139.341 53.5C139.341 53.54 139.341 53.5733 139.341 53.6C139.368 54.1467 139.488 54.66 139.701 55.14C139.915 55.6067 140.221 55.9867 140.621 56.28C141.021 56.5733 141.501 56.72 142.061 56.72C142.541 56.72 142.941 56.6467 143.261 56.5C143.581 56.3533 143.841 56.1933 144.041 56.02C144.241 55.8333 144.375 55.6933 144.441 55.6C144.561 55.4267 144.655 55.3267 144.721 55.3C144.788 55.26 144.895 55.24 145.041 55.24H146.001C146.135 55.24 146.241 55.28 146.321 55.36C146.415 55.4267 146.455 55.5267 146.441 55.66C146.428 55.86 146.321 56.1067 146.121 56.4C145.921 56.68 145.635 56.96 145.261 57.24C144.888 57.52 144.435 57.7533 143.901 57.94C143.368 58.1133 142.755 58.2 142.061 58.2ZM139.341 52.04H144.821V51.98C144.821 51.38 144.708 50.8467 144.481 50.38C144.268 49.9133 143.955 49.5467 143.541 49.28C143.128 49 142.635 48.86 142.061 48.86C141.488 48.86 140.995 49 140.581 49.28C140.181 49.5467 139.875 49.9133 139.661 50.38C139.448 50.8467 139.341 51.38 139.341 51.98V52.04ZM152.993 58.2C152.139 58.2 151.413 58.0133 150.813 57.64C150.226 57.2533 149.779 56.72 149.473 56.04C149.166 55.36 149.013 54.58 149.013 53.7V48.06C149.013 47.9267 149.053 47.82 149.133 47.74C149.226 47.6467 149.339 47.6 149.473 47.6H150.473C150.606 47.6 150.713 47.6467 150.793 47.74C150.886 47.82 150.933 47.9267 150.933 48.06V53.6C150.933 55.5867 151.799 56.58 153.533 56.58C154.359 56.58 155.019 56.32 155.513 55.8C156.019 55.2667 156.273 54.5333 156.273 53.6V48.06C156.273 47.9267 156.313 47.82 156.393 47.74C156.486 47.6467 156.599 47.6 156.733 47.6H157.713C157.859 47.6 157.973 47.6467 158.053 47.74C158.133 47.82 158.173 47.9267 158.173 48.06V57.54C158.173 57.6733 158.133 57.7867 158.053 57.88C157.973 57.96 157.859 58 157.713 58H156.793C156.659 58 156.546 57.96 156.453 57.88C156.373 57.7867 156.333 57.6733 156.333 57.54V56.66C155.973 57.1267 155.533 57.5 155.013 57.78C154.506 58.06 153.833 58.2 152.993 58.2ZM170.186 58.2C168.813 58.2 167.72 57.78 166.906 56.94C166.093 56.0867 165.646 54.9267 165.566 53.46C165.553 53.2867 165.546 53.0667 165.546 52.8C165.546 52.52 165.553 52.2933 165.566 52.12C165.62 51.1733 165.84 50.3467 166.226 49.64C166.613 48.92 167.14 48.3667 167.806 47.98C168.486 47.5933 169.28 47.4 170.186 47.4C171.2 47.4 172.046 47.6133 172.726 48.04C173.42 48.4667 173.946 49.0733 174.306 49.86C174.666 50.6467 174.846 51.5667 174.846 52.62V52.96C174.846 53.1067 174.8 53.22 174.706 53.3C174.626 53.38 174.52 53.42 174.386 53.42H167.466C167.466 53.4333 167.466 53.46 167.466 53.5C167.466 53.54 167.466 53.5733 167.466 53.6C167.493 54.1467 167.613 54.66 167.826 55.14C168.04 55.6067 168.346 55.9867 168.746 56.28C169.146 56.5733 169.626 56.72 170.186 56.72C170.666 56.72 171.066 56.6467 171.386 56.5C171.706 56.3533 171.966 56.1933 172.166 56.02C172.366 55.8333 172.5 55.6933 172.566 55.6C172.686 55.4267 172.78 55.3267 172.846 55.3C172.913 55.26 173.02 55.24 173.166 55.24H174.126C174.26 55.24 174.366 55.28 174.446 55.36C174.54 55.4267 174.58 55.5267 174.566 55.66C174.553 55.86 174.446 56.1067 174.246 56.4C174.046 56.68 173.76 56.96 173.386 57.24C173.013 57.52 172.56 57.7533 172.026 57.94C171.493 58.1133 170.88 58.2 170.186 58.2ZM167.466 52.04H172.946V51.98C172.946 51.38 172.833 50.8467 172.606 50.38C172.393 49.9133 172.08 49.5467 171.666 49.28C171.253 49 170.76 48.86 170.186 48.86C169.613 48.86 169.12 49 168.706 49.28C168.306 49.5467 168 49.9133 167.786 50.38C167.573 50.8467 167.466 51.38 167.466 51.98V52.04ZM177.598 52.84C177.464 52.84 177.351 52.8 177.258 52.72C177.178 52.6267 177.138 52.5133 177.138 52.38V51.62C177.138 51.4867 177.178 51.38 177.258 51.3C177.351 51.2067 177.464 51.16 177.598 51.16H183.598C183.731 51.16 183.838 51.2067 183.918 51.3C184.011 51.38 184.058 51.4867 184.058 51.62V52.38C184.058 52.5133 184.011 52.6267 183.918 52.72C183.838 52.8 183.731 52.84 183.598 52.84H177.598ZM187.385 58C187.252 58 187.139 57.96 187.045 57.88C186.965 57.7867 186.925 57.6733 186.925 57.54V48.06C186.925 47.9267 186.965 47.82 187.045 47.74C187.139 47.6467 187.252 47.6 187.385 47.6H188.285C188.419 47.6 188.525 47.6467 188.605 47.74C188.699 47.82 188.745 47.9267 188.745 48.06V48.76C189.052 48.3467 189.439 48.02 189.905 47.78C190.372 47.5267 190.932 47.4 191.585 47.4C193.092 47.3867 194.159 48 194.785 49.24C195.092 48.68 195.539 48.2333 196.125 47.9C196.712 47.5667 197.379 47.4 198.125 47.4C198.819 47.4 199.445 47.56 200.005 47.88C200.579 48.2 201.025 48.6867 201.345 49.34C201.679 49.98 201.845 50.7867 201.845 51.76V57.54C201.845 57.6733 201.799 57.7867 201.705 57.88C201.625 57.96 201.519 58 201.385 58H200.445C200.312 58 200.199 57.96 200.105 57.88C200.025 57.7867 199.985 57.6733 199.985 57.54V51.94C199.985 51.1933 199.879 50.6067 199.665 50.18C199.452 49.7533 199.165 49.4533 198.805 49.28C198.445 49.1067 198.052 49.02 197.625 49.02C197.279 49.02 196.925 49.1067 196.565 49.28C196.205 49.4533 195.905 49.7533 195.665 50.18C195.439 50.6067 195.325 51.1933 195.325 51.94V57.54C195.325 57.6733 195.279 57.7867 195.185 57.88C195.105 57.96 194.999 58 194.865 58H193.925C193.792 58 193.679 57.96 193.585 57.88C193.505 57.7867 193.465 57.6733 193.465 57.54V51.94C193.465 51.1933 193.352 50.6067 193.125 50.18C192.899 49.7533 192.605 49.4533 192.245 49.28C191.885 49.1067 191.505 49.02 191.105 49.02C190.759 49.02 190.405 49.1067 190.045 49.28C189.685 49.4533 189.385 49.7533 189.145 50.18C188.919 50.6067 188.805 51.1867 188.805 51.92V57.54C188.805 57.6733 188.759 57.7867 188.665 57.88C188.585 57.96 188.479 58 188.345 58H187.385ZM207.599 58.2C206.932 58.2 206.325 58.0667 205.779 57.8C205.232 57.5333 204.792 57.1733 204.459 56.72C204.125 56.2667 203.959 55.7533 203.959 55.18C203.959 54.26 204.332 53.5267 205.079 52.98C205.825 52.4333 206.799 52.0733 207.999 51.9L210.979 51.48V50.9C210.979 50.26 210.792 49.76 210.419 49.4C210.059 49.04 209.465 48.86 208.639 48.86C208.039 48.86 207.552 48.98 207.179 49.22C206.819 49.46 206.565 49.7667 206.419 50.14C206.339 50.34 206.199 50.44 205.999 50.44H205.099C204.952 50.44 204.839 50.4 204.759 50.32C204.692 50.2267 204.659 50.12 204.659 50C204.659 49.8 204.732 49.5533 204.879 49.26C205.039 48.9667 205.279 48.68 205.599 48.4C205.919 48.12 206.325 47.8867 206.819 47.7C207.325 47.5 207.939 47.4 208.659 47.4C209.459 47.4 210.132 47.5067 210.679 47.72C211.225 47.92 211.652 48.1933 211.959 48.54C212.279 48.8867 212.505 49.28 212.639 49.72C212.785 50.16 212.859 50.6067 212.859 51.06V57.54C212.859 57.6733 212.812 57.7867 212.719 57.88C212.639 57.96 212.532 58 212.399 58H211.479C211.332 58 211.219 57.96 211.139 57.88C211.059 57.7867 211.019 57.6733 211.019 57.54V56.68C210.845 56.92 210.612 57.16 210.319 57.4C210.025 57.6267 209.659 57.82 209.219 57.98C208.779 58.1267 208.239 58.2 207.599 58.2ZM208.019 56.7C208.565 56.7 209.065 56.5867 209.519 56.36C209.972 56.12 210.325 55.7533 210.579 55.26C210.845 54.7667 210.979 54.1467 210.979 53.4V52.84L208.659 53.18C207.712 53.3133 206.999 53.54 206.519 53.86C206.039 54.1667 205.799 54.56 205.799 55.04C205.799 55.4133 205.905 55.7267 206.119 55.98C206.345 56.22 206.625 56.4 206.959 56.52C207.305 56.64 207.659 56.7 208.019 56.7ZM216.194 58C216.061 58 215.947 57.96 215.854 57.88C215.774 57.7867 215.734 57.6733 215.734 57.54V48.06C215.734 47.9267 215.774 47.82 215.854 47.74C215.947 47.6467 216.061 47.6 216.194 47.6H217.154C217.287 47.6 217.394 47.6467 217.474 47.74C217.554 47.82 217.594 47.9267 217.594 48.06V57.54C217.594 57.6733 217.554 57.7867 217.474 57.88C217.394 57.96 217.287 58 217.154 58H216.194ZM216.034 45.66C215.901 45.66 215.787 45.62 215.694 45.54C215.614 45.4467 215.574 45.3333 215.574 45.2V44.12C215.574 43.9867 215.614 43.88 215.694 43.8C215.787 43.7067 215.901 43.66 216.034 43.66H217.294C217.427 43.66 217.534 43.7067 217.614 43.8C217.707 43.88 217.754 43.9867 217.754 44.12V45.2C217.754 45.3333 217.707 45.4467 217.614 45.54C217.534 45.62 217.427 45.66 217.294 45.66H216.034ZM221.058 58C220.924 58 220.811 57.96 220.718 57.88C220.638 57.7867 220.598 57.6733 220.598 57.54V44.26C220.598 44.1267 220.638 44.02 220.718 43.94C220.811 43.8467 220.924 43.8 221.058 43.8H221.998C222.144 43.8 222.258 43.8467 222.338 43.94C222.418 44.02 222.458 44.1267 222.458 44.26V57.54C222.458 57.6733 222.418 57.7867 222.338 57.88C222.258 57.96 222.144 58 221.998 58H221.058ZM231.472 58C231.339 58 231.226 57.96 231.132 57.88C231.052 57.7867 231.012 57.6733 231.012 57.54V49.2H229.312C229.179 49.2 229.066 49.16 228.972 49.08C228.892 48.9867 228.852 48.8733 228.852 48.74V48.06C228.852 47.9267 228.892 47.82 228.972 47.74C229.066 47.6467 229.179 47.6 229.312 47.6H231.012V46.6C231.012 45.92 231.126 45.3267 231.352 44.82C231.579 44.3 231.939 43.9 232.432 43.62C232.939 43.34 233.612 43.2 234.452 43.2H235.652C235.786 43.2 235.892 43.2467 235.972 43.34C236.052 43.42 236.092 43.5267 236.092 43.66V44.34C236.092 44.4733 236.052 44.5867 235.972 44.68C235.892 44.76 235.786 44.8 235.652 44.8H234.492C233.866 44.8 233.439 44.9667 233.212 45.3C232.986 45.62 232.872 46.0867 232.872 46.7V47.6H235.452C235.586 47.6 235.692 47.6467 235.772 47.74C235.852 47.82 235.892 47.9267 235.892 48.06V48.74C235.892 48.8733 235.852 48.9867 235.772 49.08C235.692 49.16 235.586 49.2 235.452 49.2H232.872V57.54C232.872 57.6733 232.826 57.7867 232.732 57.88C232.652 57.96 232.546 58 232.412 58H231.472ZM241.732 58.2C240.719 58.2 239.872 58.0067 239.192 57.62C238.512 57.2333 237.992 56.7 237.632 56.02C237.272 55.3267 237.072 54.54 237.032 53.66C237.019 53.4333 237.012 53.1467 237.012 52.8C237.012 52.44 237.019 52.1533 237.032 51.94C237.072 51.0467 237.272 50.26 237.632 49.58C238.006 48.9 238.532 48.3667 239.212 47.98C239.892 47.5933 240.732 47.4 241.732 47.4C242.732 47.4 243.572 47.5933 244.252 47.98C244.932 48.3667 245.452 48.9 245.812 49.58C246.186 50.26 246.392 51.0467 246.432 51.94C246.446 52.1533 246.452 52.44 246.452 52.8C246.452 53.1467 246.446 53.4333 246.432 53.66C246.392 54.54 246.192 55.3267 245.832 56.02C245.472 56.7 244.952 57.2333 244.272 57.62C243.592 58.0067 242.746 58.2 241.732 58.2ZM241.732 56.66C242.559 56.66 243.219 56.4 243.712 55.88C244.206 55.3467 244.472 54.5733 244.512 53.56C244.526 53.36 244.532 53.1067 244.532 52.8C244.532 52.4933 244.526 52.24 244.512 52.04C244.472 51.0267 244.206 50.26 243.712 49.74C243.219 49.2067 242.559 48.94 241.732 48.94C240.906 48.94 240.239 49.2067 239.732 49.74C239.239 50.26 238.979 51.0267 238.952 52.04C238.939 52.24 238.932 52.4933 238.932 52.8C238.932 53.1067 238.939 53.36 238.952 53.56C238.979 54.5733 239.239 55.3467 239.732 55.88C240.239 56.4 240.906 56.66 241.732 56.66ZM249.417 58C249.283 58 249.17 57.96 249.077 57.88C248.997 57.7867 248.957 57.6733 248.957 57.54V48.06C248.957 47.9267 248.997 47.82 249.077 47.74C249.17 47.6467 249.283 47.6 249.417 47.6H250.377C250.51 47.6 250.617 47.6467 250.697 47.74C250.777 47.82 250.817 47.9267 250.817 48.06V57.54C250.817 57.6733 250.777 57.7867 250.697 57.88C250.617 57.96 250.51 58 250.377 58H249.417ZM249.257 45.66C249.123 45.66 249.01 45.62 248.917 45.54C248.837 45.4467 248.797 45.3333 248.797 45.2V44.12C248.797 43.9867 248.837 43.88 248.917 43.8C249.01 43.7067 249.123 43.66 249.257 43.66H250.517C250.65 43.66 250.757 43.7067 250.837 43.8C250.93 43.88 250.977 43.9867 250.977 44.12V45.2C250.977 45.3333 250.93 45.4467 250.837 45.54C250.757 45.62 250.65 45.66 250.517 45.66H249.257ZM262.903 58.2C261.956 58.2 261.136 58.02 260.443 57.66C259.763 57.2867 259.236 56.76 258.863 56.08C258.489 55.3867 258.289 54.56 258.263 53.6C258.249 53.4 258.243 53.1333 258.243 52.8C258.243 52.4667 258.249 52.2 258.263 52C258.289 51.04 258.489 50.22 258.863 49.54C259.236 48.8467 259.763 48.32 260.443 47.96C261.136 47.5867 261.956 47.4 262.903 47.4C263.676 47.4 264.336 47.5067 264.883 47.72C265.443 47.9333 265.903 48.2067 266.263 48.54C266.623 48.8733 266.889 49.2333 267.063 49.62C267.249 50.0067 267.349 50.3733 267.363 50.72C267.376 50.8533 267.336 50.96 267.243 51.04C267.149 51.12 267.036 51.16 266.903 51.16H265.943C265.809 51.16 265.709 51.1333 265.643 51.08C265.576 51.0133 265.509 50.9067 265.443 50.76C265.203 50.1067 264.876 49.6467 264.463 49.38C264.049 49.1133 263.536 48.98 262.923 48.98C262.123 48.98 261.469 49.2267 260.963 49.72C260.469 50.2133 260.203 51.0067 260.163 52.1C260.149 52.58 260.149 53.0467 260.163 53.5C260.203 54.6067 260.469 55.4067 260.963 55.9C261.469 56.38 262.123 56.62 262.923 56.62C263.536 56.62 264.049 56.4867 264.463 56.22C264.876 55.9533 265.203 55.4933 265.443 54.84C265.509 54.6933 265.576 54.5933 265.643 54.54C265.709 54.4733 265.809 54.44 265.943 54.44H266.903C267.036 54.44 267.149 54.48 267.243 54.56C267.336 54.64 267.376 54.7467 267.363 54.88C267.349 55.16 267.289 55.4467 267.183 55.74C267.076 56.0333 266.903 56.3333 266.663 56.64C266.436 56.9333 266.149 57.2 265.803 57.44C265.456 57.6667 265.036 57.8533 264.543 58C264.063 58.1333 263.516 58.2 262.903 58.2ZM272.638 58.2C271.971 58.2 271.364 58.0667 270.818 57.8C270.271 57.5333 269.831 57.1733 269.498 56.72C269.164 56.2667 268.998 55.7533 268.998 55.18C268.998 54.26 269.371 53.5267 270.118 52.98C270.864 52.4333 271.838 52.0733 273.038 51.9L276.018 51.48V50.9C276.018 50.26 275.831 49.76 275.458 49.4C275.098 49.04 274.504 48.86 273.678 48.86C273.078 48.86 272.591 48.98 272.218 49.22C271.858 49.46 271.604 49.7667 271.458 50.14C271.378 50.34 271.238 50.44 271.038 50.44H270.138C269.991 50.44 269.878 50.4 269.798 50.32C269.731 50.2267 269.698 50.12 269.698 50C269.698 49.8 269.771 49.5533 269.918 49.26C270.078 48.9667 270.318 48.68 270.638 48.4C270.958 48.12 271.364 47.8867 271.858 47.7C272.364 47.5 272.978 47.4 273.698 47.4C274.498 47.4 275.171 47.5067 275.718 47.72C276.264 47.92 276.691 48.1933 276.998 48.54C277.318 48.8867 277.544 49.28 277.678 49.72C277.824 50.16 277.898 50.6067 277.898 51.06V57.54C277.898 57.6733 277.851 57.7867 277.758 57.88C277.678 57.96 277.571 58 277.438 58H276.518C276.371 58 276.258 57.96 276.178 57.88C276.098 57.7867 276.058 57.6733 276.058 57.54V56.68C275.884 56.92 275.651 57.16 275.358 57.4C275.064 57.6267 274.698 57.82 274.258 57.98C273.818 58.1267 273.278 58.2 272.638 58.2ZM273.058 56.7C273.604 56.7 274.104 56.5867 274.558 56.36C275.011 56.12 275.364 55.7533 275.618 55.26C275.884 54.7667 276.018 54.1467 276.018 53.4V52.84L273.698 53.18C272.751 53.3133 272.038 53.54 271.558 53.86C271.078 54.1667 270.838 54.56 270.838 55.04C270.838 55.4133 270.944 55.7267 271.158 55.98C271.384 56.22 271.664 56.4 271.998 56.52C272.344 56.64 272.698 56.7 273.058 56.7ZM284.573 58.2C283.84 58.2 283.206 58.0733 282.673 57.82C282.14 57.5533 281.7 57.2 281.353 56.76C281.02 56.3067 280.766 55.7933 280.593 55.22C280.433 54.6467 280.34 54.04 280.313 53.4C280.3 53.1867 280.293 52.9867 280.293 52.8C280.293 52.6133 280.3 52.4133 280.313 52.2C280.34 51.5733 280.433 50.9733 280.593 50.4C280.766 49.8267 281.02 49.3133 281.353 48.86C281.7 48.4067 282.14 48.0533 282.673 47.8C283.206 47.5333 283.84 47.4 284.573 47.4C285.36 47.4 286.013 47.54 286.533 47.82C287.053 48.1 287.48 48.4467 287.813 48.86V44.26C287.813 44.1267 287.853 44.02 287.933 43.94C288.026 43.8467 288.14 43.8 288.273 43.8H289.233C289.366 43.8 289.473 43.8467 289.553 43.94C289.646 44.02 289.693 44.1267 289.693 44.26V57.54C289.693 57.6733 289.646 57.7867 289.553 57.88C289.473 57.96 289.366 58 289.233 58H288.333C288.186 58 288.073 57.96 287.993 57.88C287.913 57.7867 287.873 57.6733 287.873 57.54V56.7C287.54 57.1267 287.106 57.4867 286.573 57.78C286.04 58.06 285.373 58.2 284.573 58.2ZM284.993 56.58C285.66 56.58 286.193 56.4267 286.593 56.12C286.993 55.8133 287.293 55.4267 287.493 54.96C287.693 54.48 287.8 53.9933 287.813 53.5C287.826 53.2867 287.833 53.0333 287.833 52.74C287.833 52.4333 287.826 52.1733 287.813 51.96C287.8 51.4933 287.686 51.0333 287.473 50.58C287.273 50.1267 286.966 49.7533 286.553 49.46C286.153 49.1667 285.633 49.02 284.993 49.02C284.313 49.02 283.773 49.1733 283.373 49.48C282.973 49.7733 282.686 50.1667 282.513 50.66C282.34 51.14 282.24 51.66 282.213 52.22C282.2 52.6067 282.2 52.9933 282.213 53.38C282.24 53.94 282.34 54.4667 282.513 54.96C282.686 55.44 282.973 55.8333 283.373 56.14C283.773 56.4333 284.313 56.58 284.993 56.58ZM295.568 58.2C294.901 58.2 294.294 58.0667 293.748 57.8C293.201 57.5333 292.761 57.1733 292.428 56.72C292.094 56.2667 291.928 55.7533 291.928 55.18C291.928 54.26 292.301 53.5267 293.048 52.98C293.794 52.4333 294.768 52.0733 295.968 51.9L298.948 51.48V50.9C298.948 50.26 298.761 49.76 298.388 49.4C298.028 49.04 297.434 48.86 296.608 48.86C296.008 48.86 295.521 48.98 295.148 49.22C294.788 49.46 294.534 49.7667 294.388 50.14C294.308 50.34 294.168 50.44 293.968 50.44H293.068C292.921 50.44 292.808 50.4 292.728 50.32C292.661 50.2267 292.628 50.12 292.628 50C292.628 49.8 292.701 49.5533 292.848 49.26C293.008 48.9667 293.248 48.68 293.568 48.4C293.888 48.12 294.294 47.8867 294.788 47.7C295.294 47.5 295.908 47.4 296.628 47.4C297.428 47.4 298.101 47.5067 298.648 47.72C299.194 47.92 299.621 48.1933 299.928 48.54C300.248 48.8867 300.474 49.28 300.608 49.72C300.754 50.16 300.828 50.6067 300.828 51.06V57.54C300.828 57.6733 300.781 57.7867 300.688 57.88C300.608 57.96 300.501 58 300.368 58H299.448C299.301 58 299.188 57.96 299.108 57.88C299.028 57.7867 298.988 57.6733 298.988 57.54V56.68C298.814 56.92 298.581 57.16 298.288 57.4C297.994 57.6267 297.628 57.82 297.188 57.98C296.748 58.1267 296.208 58.2 295.568 58.2ZM295.988 56.7C296.534 56.7 297.034 56.5867 297.488 56.36C297.941 56.12 298.294 55.7533 298.548 55.26C298.814 54.7667 298.948 54.1467 298.948 53.4V52.84L296.628 53.18C295.681 53.3133 294.968 53.54 294.488 53.86C294.008 54.1667 293.768 54.56 293.768 55.04C293.768 55.4133 293.874 55.7267 294.088 55.98C294.314 56.22 294.594 56.4 294.928 56.52C295.274 56.64 295.628 56.7 295.988 56.7ZM307.303 58.2C306.556 58.2 305.916 58.1067 305.383 57.92C304.849 57.7333 304.416 57.5067 304.083 57.24C303.749 56.9733 303.496 56.7067 303.323 56.44C303.163 56.1733 303.076 55.96 303.063 55.8C303.049 55.6533 303.096 55.54 303.203 55.46C303.309 55.38 303.416 55.34 303.523 55.34H304.403C304.483 55.34 304.543 55.3533 304.583 55.38C304.636 55.3933 304.703 55.4467 304.783 55.54C304.956 55.7267 305.149 55.9133 305.363 56.1C305.576 56.2867 305.836 56.44 306.143 56.56C306.463 56.68 306.856 56.74 307.323 56.74C308.003 56.74 308.563 56.6133 309.003 56.36C309.443 56.0933 309.663 55.7067 309.663 55.2C309.663 54.8667 309.569 54.6 309.383 54.4C309.209 54.2 308.889 54.02 308.423 53.86C307.969 53.7 307.343 53.5333 306.543 53.36C305.743 53.1733 305.109 52.9467 304.643 52.68C304.176 52.4 303.843 52.0733 303.643 51.7C303.443 51.3133 303.343 50.88 303.343 50.4C303.343 49.9067 303.489 49.4333 303.783 48.98C304.076 48.5133 304.503 48.1333 305.063 47.84C305.636 47.5467 306.349 47.4 307.203 47.4C307.896 47.4 308.489 47.4867 308.983 47.66C309.476 47.8333 309.883 48.0533 310.203 48.32C310.523 48.5733 310.763 48.8267 310.923 49.08C311.083 49.3333 311.169 49.5467 311.183 49.72C311.196 49.8533 311.156 49.9667 311.063 50.06C310.969 50.14 310.863 50.18 310.743 50.18H309.903C309.809 50.18 309.729 50.16 309.663 50.12C309.609 50.08 309.556 50.0333 309.503 49.98C309.369 49.8067 309.209 49.6333 309.023 49.46C308.849 49.2867 308.616 49.1467 308.323 49.04C308.043 48.92 307.669 48.86 307.203 48.86C306.536 48.86 306.036 49 305.703 49.28C305.369 49.56 305.203 49.9133 305.203 50.34C305.203 50.5933 305.276 50.82 305.423 51.02C305.569 51.22 305.849 51.4 306.263 51.56C306.676 51.72 307.289 51.8933 308.103 52.08C308.983 52.2533 309.676 52.4867 310.183 52.78C310.689 53.0733 311.049 53.4133 311.263 53.8C311.476 54.1867 311.583 54.6333 311.583 55.14C311.583 55.7 311.416 56.2133 311.083 56.68C310.763 57.1467 310.283 57.52 309.643 57.8C309.016 58.0667 308.236 58.2 307.303 58.2ZM317.938 58C317.192 58 316.585 57.86 316.118 57.58C315.652 57.2867 315.312 56.88 315.098 56.36C314.885 55.8267 314.778 55.2 314.778 54.48V49.2H313.218C313.085 49.2 312.972 49.16 312.878 49.08C312.798 48.9867 312.758 48.8733 312.758 48.74V48.06C312.758 47.9267 312.798 47.82 312.878 47.74C312.972 47.6467 313.085 47.6 313.218 47.6H314.778V44.26C314.778 44.1267 314.818 44.02 314.898 43.94C314.992 43.8467 315.105 43.8 315.238 43.8H316.178C316.312 43.8 316.418 43.8467 316.498 43.94C316.592 44.02 316.638 44.1267 316.638 44.26V47.6H319.118C319.252 47.6 319.358 47.6467 319.438 47.74C319.532 47.82 319.578 47.9267 319.578 48.06V48.74C319.578 48.8733 319.532 48.9867 319.438 49.08C319.358 49.16 319.252 49.2 319.118 49.2H316.638V54.34C316.638 54.9667 316.745 55.46 316.958 55.82C317.172 56.18 317.552 56.36 318.098 56.36H319.318C319.452 56.36 319.558 56.4067 319.638 56.5C319.732 56.58 319.778 56.6867 319.778 56.82V57.54C319.778 57.6733 319.732 57.7867 319.638 57.88C319.558 57.96 319.452 58 319.318 58H317.938ZM322.151 58C322.018 58 321.904 57.96 321.811 57.88C321.731 57.7867 321.691 57.6733 321.691 57.54V48.08C321.691 47.9467 321.731 47.8333 321.811 47.74C321.904 47.6467 322.018 47.6 322.151 47.6H323.071C323.204 47.6 323.318 47.6467 323.411 47.74C323.504 47.8333 323.551 47.9467 323.551 48.08V48.96C323.818 48.5067 324.184 48.1667 324.651 47.94C325.118 47.7133 325.678 47.6 326.331 47.6H327.131C327.264 47.6 327.371 47.6467 327.451 47.74C327.531 47.82 327.571 47.9267 327.571 48.06V48.88C327.571 49.0133 327.531 49.12 327.451 49.2C327.371 49.28 327.264 49.32 327.131 49.32H325.931C325.211 49.32 324.644 49.5333 324.231 49.96C323.818 50.3733 323.611 50.94 323.611 51.66V57.54C323.611 57.6733 323.564 57.7867 323.471 57.88C323.378 57.96 323.264 58 323.131 58H322.151ZM332.032 58.2C331.366 58.2 330.759 58.0667 330.212 57.8C329.666 57.5333 329.226 57.1733 328.892 56.72C328.559 56.2667 328.392 55.7533 328.392 55.18C328.392 54.26 328.766 53.5267 329.512 52.98C330.259 52.4333 331.232 52.0733 332.432 51.9L335.412 51.48V50.9C335.412 50.26 335.226 49.76 334.852 49.4C334.492 49.04 333.899 48.86 333.072 48.86C332.472 48.86 331.986 48.98 331.612 49.22C331.252 49.46 330.999 49.7667 330.852 50.14C330.772 50.34 330.632 50.44 330.432 50.44H329.532C329.386 50.44 329.272 50.4 329.192 50.32C329.126 50.2267 329.092 50.12 329.092 50C329.092 49.8 329.166 49.5533 329.312 49.26C329.472 48.9667 329.712 48.68 330.032 48.4C330.352 48.12 330.759 47.8867 331.252 47.7C331.759 47.5 332.372 47.4 333.092 47.4C333.892 47.4 334.566 47.5067 335.112 47.72C335.659 47.92 336.086 48.1933 336.392 48.54C336.712 48.8867 336.939 49.28 337.072 49.72C337.219 50.16 337.292 50.6067 337.292 51.06V57.54C337.292 57.6733 337.246 57.7867 337.152 57.88C337.072 57.96 336.966 58 336.832 58H335.912C335.766 58 335.652 57.96 335.572 57.88C335.492 57.7867 335.452 57.6733 335.452 57.54V56.68C335.279 56.92 335.046 57.16 334.752 57.4C334.459 57.6267 334.092 57.82 333.652 57.98C333.212 58.1267 332.672 58.2 332.032 58.2ZM332.452 56.7C332.999 56.7 333.499 56.5867 333.952 56.36C334.406 56.12 334.759 55.7533 335.012 55.26C335.279 54.7667 335.412 54.1467 335.412 53.4V52.84L333.092 53.18C332.146 53.3133 331.432 53.54 330.952 53.86C330.472 54.1667 330.232 54.56 330.232 55.04C330.232 55.4133 330.339 55.7267 330.552 55.98C330.779 56.22 331.059 56.4 331.392 56.52C331.739 56.64 332.092 56.7 332.452 56.7ZM343.967 58.2C343.234 58.2 342.601 58.0733 342.068 57.82C341.534 57.5533 341.094 57.2 340.748 56.76C340.414 56.3067 340.161 55.7933 339.988 55.22C339.828 54.6467 339.734 54.04 339.708 53.4C339.694 53.1867 339.688 52.9867 339.688 52.8C339.688 52.6133 339.694 52.4133 339.708 52.2C339.734 51.5733 339.828 50.9733 339.988 50.4C340.161 49.8267 340.414 49.3133 340.748 48.86C341.094 48.4067 341.534 48.0533 342.068 47.8C342.601 47.5333 343.234 47.4 343.967 47.4C344.754 47.4 345.408 47.54 345.928 47.82C346.448 48.1 346.874 48.4467 347.208 48.86V44.26C347.208 44.1267 347.248 44.02 347.328 43.94C347.421 43.8467 347.534 43.8 347.668 43.8H348.628C348.761 43.8 348.868 43.8467 348.948 43.94C349.041 44.02 349.088 44.1267 349.088 44.26V57.54C349.088 57.6733 349.041 57.7867 348.948 57.88C348.868 57.96 348.761 58 348.628 58H347.728C347.581 58 347.468 57.96 347.388 57.88C347.308 57.7867 347.268 57.6733 347.268 57.54V56.7C346.934 57.1267 346.501 57.4867 345.968 57.78C345.434 58.06 344.768 58.2 343.967 58.2ZM344.388 56.58C345.054 56.58 345.588 56.4267 345.988 56.12C346.388 55.8133 346.688 55.4267 346.888 54.96C347.088 54.48 347.194 53.9933 347.208 53.5C347.221 53.2867 347.228 53.0333 347.228 52.74C347.228 52.4333 347.221 52.1733 347.208 51.96C347.194 51.4933 347.081 51.0333 346.868 50.58C346.668 50.1267 346.361 49.7533 345.948 49.46C345.548 49.1667 345.028 49.02 344.388 49.02C343.708 49.02 343.168 49.1733 342.768 49.48C342.368 49.7733 342.081 50.1667 341.908 50.66C341.734 51.14 341.634 51.66 341.608 52.22C341.594 52.6067 341.594 52.9933 341.608 53.38C341.634 53.94 341.734 54.4667 341.908 54.96C342.081 55.44 342.368 55.8333 342.768 56.14C343.168 56.4333 343.708 56.58 344.388 56.58ZM356.322 58.2C355.309 58.2 354.462 58.0067 353.782 57.62C353.102 57.2333 352.582 56.7 352.222 56.02C351.862 55.3267 351.662 54.54 351.622 53.66C351.609 53.4333 351.602 53.1467 351.602 52.8C351.602 52.44 351.609 52.1533 351.622 51.94C351.662 51.0467 351.862 50.26 352.222 49.58C352.595 48.9 353.122 48.3667 353.802 47.98C354.482 47.5933 355.322 47.4 356.322 47.4C357.322 47.4 358.162 47.5933 358.842 47.98C359.522 48.3667 360.042 48.9 360.402 49.58C360.775 50.26 360.982 51.0467 361.022 51.94C361.035 52.1533 361.042 52.44 361.042 52.8C361.042 53.1467 361.035 53.4333 361.022 53.66C360.982 54.54 360.782 55.3267 360.422 56.02C360.062 56.7 359.542 57.2333 358.862 57.62C358.182 58.0067 357.335 58.2 356.322 58.2ZM356.322 56.66C357.149 56.66 357.809 56.4 358.302 55.88C358.795 55.3467 359.062 54.5733 359.102 53.56C359.115 53.36 359.122 53.1067 359.122 52.8C359.122 52.4933 359.115 52.24 359.102 52.04C359.062 51.0267 358.795 50.26 358.302 49.74C357.809 49.2067 357.149 48.94 356.322 48.94C355.495 48.94 354.829 49.2067 354.322 49.74C353.829 50.26 353.569 51.0267 353.542 52.04C353.529 52.24 353.522 52.4933 353.522 52.8C353.522 53.1067 353.529 53.36 353.542 53.56C353.569 54.5733 353.829 55.3467 354.322 55.88C354.829 56.4 355.495 56.66 356.322 56.66ZM372.649 58.2C371.702 58.2 370.882 58.02 370.189 57.66C369.509 57.2867 368.982 56.76 368.609 56.08C368.235 55.3867 368.035 54.56 368.009 53.6C367.995 53.4 367.989 53.1333 367.989 52.8C367.989 52.4667 367.995 52.2 368.009 52C368.035 51.04 368.235 50.22 368.609 49.54C368.982 48.8467 369.509 48.32 370.189 47.96C370.882 47.5867 371.702 47.4 372.649 47.4C373.422 47.4 374.082 47.5067 374.629 47.72C375.189 47.9333 375.649 48.2067 376.009 48.54C376.369 48.8733 376.635 49.2333 376.809 49.62C376.995 50.0067 377.095 50.3733 377.109 50.72C377.122 50.8533 377.082 50.96 376.989 51.04C376.895 51.12 376.782 51.16 376.649 51.16H375.689C375.555 51.16 375.455 51.1333 375.389 51.08C375.322 51.0133 375.255 50.9067 375.189 50.76C374.949 50.1067 374.622 49.6467 374.209 49.38C373.795 49.1133 373.282 48.98 372.669 48.98C371.869 48.98 371.215 49.2267 370.709 49.72C370.215 50.2133 369.949 51.0067 369.909 52.1C369.895 52.58 369.895 53.0467 369.909 53.5C369.949 54.6067 370.215 55.4067 370.709 55.9C371.215 56.38 371.869 56.62 372.669 56.62C373.282 56.62 373.795 56.4867 374.209 56.22C374.622 55.9533 374.949 55.4933 375.189 54.84C375.255 54.6933 375.322 54.5933 375.389 54.54C375.455 54.4733 375.555 54.44 375.689 54.44H376.649C376.782 54.44 376.895 54.48 376.989 54.56C377.082 54.64 377.122 54.7467 377.109 54.88C377.095 55.16 377.035 55.4467 376.929 55.74C376.822 56.0333 376.649 56.3333 376.409 56.64C376.182 56.9333 375.895 57.2 375.549 57.44C375.202 57.6667 374.782 57.8533 374.289 58C373.809 58.1333 373.262 58.2 372.649 58.2ZM383.744 58.2C382.731 58.2 381.884 58.0067 381.204 57.62C380.524 57.2333 380.004 56.7 379.644 56.02C379.284 55.3267 379.084 54.54 379.044 53.66C379.031 53.4333 379.024 53.1467 379.024 52.8C379.024 52.44 379.031 52.1533 379.044 51.94C379.084 51.0467 379.284 50.26 379.644 49.58C380.017 48.9 380.544 48.3667 381.224 47.98C381.904 47.5933 382.744 47.4 383.744 47.4C384.744 47.4 385.584 47.5933 386.264 47.98C386.944 48.3667 387.464 48.9 387.824 49.58C388.197 50.26 388.404 51.0467 388.444 51.94C388.457 52.1533 388.464 52.44 388.464 52.8C388.464 53.1467 388.457 53.4333 388.444 53.66C388.404 54.54 388.204 55.3267 387.844 56.02C387.484 56.7 386.964 57.2333 386.284 57.62C385.604 58.0067 384.757 58.2 383.744 58.2ZM383.744 56.66C384.571 56.66 385.231 56.4 385.724 55.88C386.217 55.3467 386.484 54.5733 386.524 53.56C386.537 53.36 386.544 53.1067 386.544 52.8C386.544 52.4933 386.537 52.24 386.524 52.04C386.484 51.0267 386.217 50.26 385.724 49.74C385.231 49.2067 384.571 48.94 383.744 48.94C382.917 48.94 382.251 49.2067 381.744 49.74C381.251 50.26 380.991 51.0267 380.964 52.04C380.951 52.24 380.944 52.4933 380.944 52.8C380.944 53.1067 380.951 53.36 380.964 53.56C380.991 54.5733 381.251 55.3467 381.744 55.88C382.251 56.4 382.917 56.66 383.744 56.66ZM391.428 58C391.295 58 391.182 57.96 391.088 57.88C391.008 57.7867 390.968 57.6733 390.968 57.54V48.06C390.968 47.9267 391.008 47.82 391.088 47.74C391.182 47.6467 391.295 47.6 391.428 47.6H392.328C392.462 47.6 392.568 47.6467 392.648 47.74C392.742 47.82 392.788 47.9267 392.788 48.06V48.76C393.095 48.3467 393.482 48.02 393.948 47.78C394.415 47.5267 394.975 47.4 395.628 47.4C397.135 47.3867 398.202 48 398.828 49.24C399.135 48.68 399.582 48.2333 400.168 47.9C400.755 47.5667 401.422 47.4 402.168 47.4C402.862 47.4 403.488 47.56 404.048 47.88C404.622 48.2 405.068 48.6867 405.388 49.34C405.722 49.98 405.888 50.7867 405.888 51.76V57.54C405.888 57.6733 405.842 57.7867 405.748 57.88C405.668 57.96 405.562 58 405.428 58H404.488C404.355 58 404.242 57.96 404.148 57.88C404.068 57.7867 404.028 57.6733 404.028 57.54V51.94C404.028 51.1933 403.922 50.6067 403.708 50.18C403.495 49.7533 403.208 49.4533 402.848 49.28C402.488 49.1067 402.095 49.02 401.668 49.02C401.322 49.02 400.968 49.1067 400.608 49.28C400.248 49.4533 399.948 49.7533 399.708 50.18C399.482 50.6067 399.368 51.1933 399.368 51.94V57.54C399.368 57.6733 399.322 57.7867 399.228 57.88C399.148 57.96 399.042 58 398.908 58H397.968C397.835 58 397.722 57.96 397.628 57.88C397.548 57.7867 397.508 57.6733 397.508 57.54V51.94C397.508 51.1933 397.395 50.6067 397.168 50.18C396.942 49.7533 396.648 49.4533 396.288 49.28C395.928 49.1067 395.548 49.02 395.148 49.02C394.802 49.02 394.448 49.1067 394.088 49.28C393.728 49.4533 393.428 49.7533 393.188 50.18C392.962 50.6067 392.848 51.1867 392.848 51.92V57.54C392.848 57.6733 392.802 57.7867 392.708 57.88C392.628 57.96 392.522 58 392.388 58H391.428ZM417.244 58.2C416.497 58.2 415.857 58.1067 415.324 57.92C414.791 57.7333 414.357 57.5067 414.024 57.24C413.691 56.9733 413.437 56.7067 413.264 56.44C413.104 56.1733 413.017 55.96 413.004 55.8C412.991 55.6533 413.037 55.54 413.144 55.46C413.251 55.38 413.357 55.34 413.464 55.34H414.344C414.424 55.34 414.484 55.3533 414.524 55.38C414.577 55.3933 414.644 55.4467 414.724 55.54C414.897 55.7267 415.091 55.9133 415.304 56.1C415.517 56.2867 415.777 56.44 416.084 56.56C416.404 56.68 416.797 56.74 417.264 56.74C417.944 56.74 418.504 56.6133 418.944 56.36C419.384 56.0933 419.604 55.7067 419.604 55.2C419.604 54.8667 419.511 54.6 419.324 54.4C419.151 54.2 418.831 54.02 418.364 53.86C417.911 53.7 417.284 53.5333 416.484 53.36C415.684 53.1733 415.051 52.9467 414.584 52.68C414.117 52.4 413.784 52.0733 413.584 51.7C413.384 51.3133 413.284 50.88 413.284 50.4C413.284 49.9067 413.431 49.4333 413.724 48.98C414.017 48.5133 414.444 48.1333 415.004 47.84C415.577 47.5467 416.291 47.4 417.144 47.4C417.837 47.4 418.431 47.4867 418.924 47.66C419.417 47.8333 419.824 48.0533 420.144 48.32C420.464 48.5733 420.704 48.8267 420.864 49.08C421.024 49.3333 421.111 49.5467 421.124 49.72C421.137 49.8533 421.097 49.9667 421.004 50.06C420.911 50.14 420.804 50.18 420.684 50.18H419.844C419.751 50.18 419.671 50.16 419.604 50.12C419.551 50.08 419.497 50.0333 419.444 49.98C419.311 49.8067 419.151 49.6333 418.964 49.46C418.791 49.2867 418.557 49.1467 418.264 49.04C417.984 48.92 417.611 48.86 417.144 48.86C416.477 48.86 415.977 49 415.644 49.28C415.311 49.56 415.144 49.9133 415.144 50.34C415.144 50.5933 415.217 50.82 415.364 51.02C415.511 51.22 415.791 51.4 416.204 51.56C416.617 51.72 417.231 51.8933 418.044 52.08C418.924 52.2533 419.617 52.4867 420.124 52.78C420.631 53.0733 420.991 53.4133 421.204 53.8C421.417 54.1867 421.524 54.6333 421.524 55.14C421.524 55.7 421.357 56.2133 421.024 56.68C420.704 57.1467 420.224 57.52 419.584 57.8C418.957 58.0667 418.177 58.2 417.244 58.2ZM427.719 58.2C426.866 58.2 426.139 58.0133 425.539 57.64C424.953 57.2533 424.506 56.72 424.199 56.04C423.893 55.36 423.739 54.58 423.739 53.7V48.06C423.739 47.9267 423.779 47.82 423.859 47.74C423.953 47.6467 424.066 47.6 424.199 47.6H425.199C425.333 47.6 425.439 47.6467 425.519 47.74C425.613 47.82 425.659 47.9267 425.659 48.06V53.6C425.659 55.5867 426.526 56.58 428.259 56.58C429.086 56.58 429.746 56.32 430.239 55.8C430.746 55.2667 430.999 54.5333 430.999 53.6V48.06C430.999 47.9267 431.039 47.82 431.119 47.74C431.213 47.6467 431.326 47.6 431.459 47.6H432.439C432.586 47.6 432.699 47.6467 432.779 47.74C432.859 47.82 432.899 47.9267 432.899 48.06V57.54C432.899 57.6733 432.859 57.7867 432.779 57.88C432.699 57.96 432.586 58 432.439 58H431.519C431.386 58 431.273 57.96 431.179 57.88C431.099 57.7867 431.059 57.6733 431.059 57.54V56.66C430.699 57.1267 430.259 57.5 429.739 57.78C429.233 58.06 428.559 58.2 427.719 58.2ZM440.071 58.2C439.124 58.2 438.304 58.02 437.611 57.66C436.931 57.2867 436.404 56.76 436.031 56.08C435.657 55.3867 435.457 54.56 435.431 53.6C435.417 53.4 435.411 53.1333 435.411 52.8C435.411 52.4667 435.417 52.2 435.431 52C435.457 51.04 435.657 50.22 436.031 49.54C436.404 48.8467 436.931 48.32 437.611 47.96C438.304 47.5867 439.124 47.4 440.071 47.4C440.844 47.4 441.504 47.5067 442.051 47.72C442.611 47.9333 443.071 48.2067 443.431 48.54C443.791 48.8733 444.057 49.2333 444.231 49.62C444.417 50.0067 444.517 50.3733 444.531 50.72C444.544 50.8533 444.504 50.96 444.411 51.04C444.317 51.12 444.204 51.16 444.071 51.16H443.111C442.977 51.16 442.877 51.1333 442.811 51.08C442.744 51.0133 442.677 50.9067 442.611 50.76C442.371 50.1067 442.044 49.6467 441.631 49.38C441.217 49.1133 440.704 48.98 440.091 48.98C439.291 48.98 438.637 49.2267 438.131 49.72C437.637 50.2133 437.371 51.0067 437.331 52.1C437.317 52.58 437.317 53.0467 437.331 53.5C437.371 54.6067 437.637 55.4067 438.131 55.9C438.637 56.38 439.291 56.62 440.091 56.62C440.704 56.62 441.217 56.4867 441.631 56.22C442.044 55.9533 442.371 55.4933 442.611 54.84C442.677 54.6933 442.744 54.5933 442.811 54.54C442.877 54.4733 442.977 54.44 443.111 54.44H444.071C444.204 54.44 444.317 54.48 444.411 54.56C444.504 54.64 444.544 54.7467 444.531 54.88C444.517 55.16 444.457 55.4467 444.351 55.74C444.244 56.0333 444.071 56.3333 443.831 56.64C443.604 56.9333 443.317 57.2 442.971 57.44C442.624 57.6667 442.204 57.8533 441.711 58C441.231 58.1333 440.684 58.2 440.071 58.2ZM451.046 58.2C449.672 58.2 448.579 57.78 447.766 56.94C446.952 56.0867 446.506 54.9267 446.426 53.46C446.412 53.2867 446.406 53.0667 446.406 52.8C446.406 52.52 446.412 52.2933 446.426 52.12C446.479 51.1733 446.699 50.3467 447.086 49.64C447.472 48.92 447.999 48.3667 448.666 47.98C449.346 47.5933 450.139 47.4 451.046 47.4C452.059 47.4 452.906 47.6133 453.586 48.04C454.279 48.4667 454.806 49.0733 455.166 49.86C455.526 50.6467 455.706 51.5667 455.706 52.62V52.96C455.706 53.1067 455.659 53.22 455.566 53.3C455.486 53.38 455.379 53.42 455.246 53.42H448.326C448.326 53.4333 448.326 53.46 448.326 53.5C448.326 53.54 448.326 53.5733 448.326 53.6C448.352 54.1467 448.472 54.66 448.686 55.14C448.899 55.6067 449.206 55.9867 449.606 56.28C450.006 56.5733 450.486 56.72 451.046 56.72C451.526 56.72 451.926 56.6467 452.246 56.5C452.566 56.3533 452.826 56.1933 453.026 56.02C453.226 55.8333 453.359 55.6933 453.426 55.6C453.546 55.4267 453.639 55.3267 453.706 55.3C453.772 55.26 453.879 55.24 454.026 55.24H454.986C455.119 55.24 455.226 55.28 455.306 55.36C455.399 55.4267 455.439 55.5267 455.426 55.66C455.412 55.86 455.306 56.1067 455.106 56.4C454.906 56.68 454.619 56.96 454.246 57.24C453.872 57.52 453.419 57.7533 452.886 57.94C452.352 58.1133 451.739 58.2 451.046 58.2ZM448.326 52.04H453.806V51.98C453.806 51.38 453.692 50.8467 453.466 50.38C453.252 49.9133 452.939 49.5467 452.526 49.28C452.112 49 451.619 48.86 451.046 48.86C450.472 48.86 449.979 49 449.566 49.28C449.166 49.5467 448.859 49.9133 448.646 50.38C448.432 50.8467 448.326 51.38 448.326 51.98V52.04ZM461.697 58.2C460.951 58.2 460.311 58.1067 459.777 57.92C459.244 57.7333 458.811 57.5067 458.477 57.24C458.144 56.9733 457.891 56.7067 457.717 56.44C457.557 56.1733 457.471 55.96 457.457 55.8C457.444 55.6533 457.491 55.54 457.597 55.46C457.704 55.38 457.811 55.34 457.917 55.34H458.797C458.877 55.34 458.937 55.3533 458.977 55.38C459.031 55.3933 459.097 55.4467 459.177 55.54C459.351 55.7267 459.544 55.9133 459.757 56.1C459.971 56.2867 460.231 56.44 460.537 56.56C460.857 56.68 461.251 56.74 461.717 56.74C462.397 56.74 462.957 56.6133 463.397 56.36C463.837 56.0933 464.057 55.7067 464.057 55.2C464.057 54.8667 463.964 54.6 463.777 54.4C463.604 54.2 463.284 54.02 462.817 53.86C462.364 53.7 461.737 53.5333 460.937 53.36C460.137 53.1733 459.504 52.9467 459.037 52.68C458.571 52.4 458.237 52.0733 458.037 51.7C457.837 51.3133 457.737 50.88 457.737 50.4C457.737 49.9067 457.884 49.4333 458.177 48.98C458.471 48.5133 458.897 48.1333 459.457 47.84C460.031 47.5467 460.744 47.4 461.597 47.4C462.291 47.4 462.884 47.4867 463.377 47.66C463.871 47.8333 464.277 48.0533 464.597 48.32C464.917 48.5733 465.157 48.8267 465.317 49.08C465.477 49.3333 465.564 49.5467 465.577 49.72C465.591 49.8533 465.551 49.9667 465.457 50.06C465.364 50.14 465.257 50.18 465.137 50.18H464.297C464.204 50.18 464.124 50.16 464.057 50.12C464.004 50.08 463.951 50.0333 463.897 49.98C463.764 49.8067 463.604 49.6333 463.417 49.46C463.244 49.2867 463.011 49.1467 462.717 49.04C462.437 48.92 462.064 48.86 461.597 48.86C460.931 48.86 460.431 49 460.097 49.28C459.764 49.56 459.597 49.9133 459.597 50.34C459.597 50.5933 459.671 50.82 459.817 51.02C459.964 51.22 460.244 51.4 460.657 51.56C461.071 51.72 461.684 51.8933 462.497 52.08C463.377 52.2533 464.071 52.4867 464.577 52.78C465.084 53.0733 465.444 53.4133 465.657 53.8C465.871 54.1867 465.977 54.6333 465.977 55.14C465.977 55.7 465.811 56.2133 465.477 56.68C465.157 57.1467 464.677 57.52 464.037 57.8C463.411 58.0667 462.631 58.2 461.697 58.2ZM471.893 58.2C471.146 58.2 470.506 58.1067 469.973 57.92C469.439 57.7333 469.006 57.5067 468.673 57.24C468.339 56.9733 468.086 56.7067 467.913 56.44C467.753 56.1733 467.666 55.96 467.653 55.8C467.639 55.6533 467.686 55.54 467.793 55.46C467.899 55.38 468.006 55.34 468.113 55.34H468.993C469.073 55.34 469.133 55.3533 469.173 55.38C469.226 55.3933 469.293 55.4467 469.373 55.54C469.546 55.7267 469.739 55.9133 469.953 56.1C470.166 56.2867 470.426 56.44 470.733 56.56C471.053 56.68 471.446 56.74 471.913 56.74C472.593 56.74 473.153 56.6133 473.593 56.36C474.033 56.0933 474.253 55.7067 474.253 55.2C474.253 54.8667 474.159 54.6 473.973 54.4C473.799 54.2 473.479 54.02 473.013 53.86C472.559 53.7 471.933 53.5333 471.133 53.36C470.333 53.1733 469.699 52.9467 469.233 52.68C468.766 52.4 468.433 52.0733 468.233 51.7C468.033 51.3133 467.933 50.88 467.933 50.4C467.933 49.9067 468.079 49.4333 468.373 48.98C468.666 48.5133 469.093 48.1333 469.653 47.84C470.226 47.5467 470.939 47.4 471.793 47.4C472.486 47.4 473.079 47.4867 473.573 47.66C474.066 47.8333 474.473 48.0533 474.793 48.32C475.113 48.5733 475.353 48.8267 475.513 49.08C475.673 49.3333 475.759 49.5467 475.773 49.72C475.786 49.8533 475.746 49.9667 475.653 50.06C475.559 50.14 475.453 50.18 475.333 50.18H474.493C474.399 50.18 474.319 50.16 474.253 50.12C474.199 50.08 474.146 50.0333 474.093 49.98C473.959 49.8067 473.799 49.6333 473.613 49.46C473.439 49.2867 473.206 49.1467 472.913 49.04C472.633 48.92 472.259 48.86 471.793 48.86C471.126 48.86 470.626 49 470.293 49.28C469.959 49.56 469.793 49.9133 469.793 50.34C469.793 50.5933 469.866 50.82 470.013 51.02C470.159 51.22 470.439 51.4 470.853 51.56C471.266 51.72 471.879 51.8933 472.692 52.08C473.573 52.2533 474.266 52.4867 474.773 52.78C475.279 53.0733 475.639 53.4133 475.853 53.8C476.066 54.1867 476.173 54.6333 476.173 55.14C476.173 55.7 476.006 56.2133 475.673 56.68C475.353 57.1467 474.873 57.52 474.233 57.8C473.606 58.0667 472.826 58.2 471.893 58.2ZM482.748 58.2C481.734 58.2 480.888 58.0067 480.208 57.62C479.528 57.2333 479.008 56.7 478.648 56.02C478.288 55.3267 478.088 54.54 478.048 53.66C478.034 53.4333 478.028 53.1467 478.028 52.8C478.028 52.44 478.034 52.1533 478.048 51.94C478.088 51.0467 478.288 50.26 478.648 49.58C479.021 48.9 479.548 48.3667 480.228 47.98C480.908 47.5933 481.748 47.4 482.748 47.4C483.748 47.4 484.588 47.5933 485.268 47.98C485.948 48.3667 486.468 48.9 486.828 49.58C487.201 50.26 487.408 51.0467 487.448 51.94C487.461 52.1533 487.468 52.44 487.468 52.8C487.468 53.1467 487.461 53.4333 487.448 53.66C487.408 54.54 487.208 55.3267 486.848 56.02C486.488 56.7 485.968 57.2333 485.288 57.62C484.608 58.0067 483.761 58.2 482.748 58.2ZM482.748 56.66C483.574 56.66 484.234 56.4 484.728 55.88C485.221 55.3467 485.488 54.5733 485.528 53.56C485.541 53.36 485.548 53.1067 485.548 52.8C485.548 52.4933 485.541 52.24 485.528 52.04C485.488 51.0267 485.221 50.26 484.728 49.74C484.234 49.2067 483.574 48.94 482.748 48.94C481.921 48.94 481.254 49.2067 480.748 49.74C480.254 50.26 479.994 51.0267 479.968 52.04C479.954 52.24 479.948 52.4933 479.948 52.8C479.948 53.1067 479.954 53.36 479.968 53.56C479.994 54.5733 480.254 55.3467 480.748 55.88C481.254 56.4 481.921 56.66 482.748 56.66ZM490.472 54.68C490.339 54.68 490.226 54.64 490.132 54.56C490.052 54.4667 490.012 54.3533 490.012 54.22V44.46C490.012 44.3267 490.052 44.22 490.132 44.14C490.226 44.0467 490.339 44 490.472 44H491.412C491.546 44 491.652 44.0467 491.732 44.14C491.812 44.22 491.852 44.3267 491.852 44.46V54.22C491.852 54.3533 491.812 54.4667 491.732 54.56C491.652 54.64 491.546 54.68 491.412 54.68H490.472ZM490.292 58C490.159 58 490.046 57.96 489.952 57.88C489.872 57.7867 489.832 57.6733 489.832 57.54V56.28C489.832 56.1333 489.872 56.02 489.952 55.94C490.046 55.8467 490.159 55.8 490.292 55.8H491.572C491.706 55.8 491.812 55.8467 491.892 55.94C491.986 56.02 492.032 56.1333 492.032 56.28V57.54C492.032 57.6733 491.986 57.7867 491.892 57.88C491.812 57.96 491.706 58 491.572 58H490.292Z" fill="#424242"/>
<circle cx="50" cy="50" r="50" fill="white"/>
<path d="M73.786 41.1013L49.995 24.4043L26.2141 41.1013C24.785 42.1417 24 43.7073 24 45.4043V46.6164L34.0639 53.182V38.5457H65.2619V53.6265L76 46.6265V45.4144C76 43.7174 75.215 42.0204 73.786 41.1114V41.1013Z" fill="#424242"/>
<rect x="33.3604" y="37.7803" width="33.28" height="26.5" fill="#FDFDFD"/>
<circle cx="50" cy="53" r="12" fill="#008733"/>
<path d="M53.8464 49.2757C54.0342 49.0969 54.2841 48.9981 54.5434 49C54.8028 49.002 55.0512 49.1046 55.2363 49.2863C55.4214 49.4679 55.5287 49.7143 55.5355 49.9736C55.5424 50.2328 55.4483 50.4846 55.273 50.6757L49.953 57.3291C49.8615 57.4276 49.7511 57.5067 49.6284 57.5616C49.5057 57.6164 49.3731 57.646 49.2387 57.6485C49.1043 57.651 48.9707 57.6264 48.846 57.576C48.7213 57.5257 48.6081 57.4508 48.513 57.3557L44.985 53.8277C44.8868 53.7362 44.808 53.6258 44.7533 53.5031C44.6987 53.3805 44.6693 53.248 44.6669 53.1138C44.6645 52.9795 44.6892 52.8461 44.7395 52.7216C44.7898 52.5971 44.8647 52.484 44.9596 52.389C45.0546 52.2941 45.1677 52.2192 45.2922 52.1689C45.4167 52.1186 45.5501 52.0939 45.6844 52.0963C45.8187 52.0987 45.9511 52.128 46.0737 52.1827C46.1964 52.2374 46.3068 52.3162 46.3984 52.4144L49.1904 55.2051L53.821 49.3051C53.8294 49.2948 53.8383 49.285 53.8477 49.2757H53.8464Z" fill="white"/>
<path d="M59.1344 58.2275L59.1347 58.2273L65.5349 54.0458L65.5353 54.0455L75.5 47.5498V72.7178C75.5 75.3121 73.3772 77.4401 70.797 77.4401H29.203C26.6228 77.4401 24.5 75.3121 24.5 72.7178V47.5494L33.7905 53.6011L33.791 53.6015L39.4363 57.288L39.4365 57.2881L49.7318 64.0053L50.005 64.1835L50.2782 64.0053L59.1344 58.2275Z" fill="white" stroke="#424242"/>
</svg>
