<svg width="100" height="100" viewBox="0 0 100 100" fill="none" xmlns="http://www.w3.org/2000/svg">
<circle cx="50" cy="50" r="50" fill="white"/>
<path d="M73.786 41.1013L49.995 24.4043L26.2141 41.1013C24.785 42.1417 24 43.7073 24 45.4043V46.6164L34.0639 53.182V38.5457H65.2619V53.6265L76 46.6265V45.4144C76 43.7174 75.215 42.0204 73.786 41.1114V41.1013Z" fill="#424242"/>
<rect x="33.3604" y="37.7803" width="33.28" height="26.5" fill="#FDFDFD"/>
<circle cx="50" cy="53" r="12" fill="#008733"/>
<path d="M53.8464 49.2757C54.0342 49.0969 54.2841 48.9981 54.5434 49C54.8028 49.002 55.0512 49.1046 55.2363 49.2863C55.4214 49.4679 55.5287 49.7143 55.5355 49.9736C55.5424 50.2328 55.4483 50.4846 55.273 50.6757L49.953 57.3291C49.8615 57.4276 49.7511 57.5067 49.6284 57.5616C49.5057 57.6164 49.3731 57.646 49.2387 57.6485C49.1043 57.651 48.9707 57.6264 48.846 57.576C48.7213 57.5257 48.6081 57.4508 48.513 57.3557L44.985 53.8277C44.8868 53.7362 44.808 53.6258 44.7533 53.5031C44.6987 53.3805 44.6693 53.248 44.6669 53.1138C44.6645 52.9795 44.6892 52.8461 44.7395 52.7216C44.7898 52.5971 44.8647 52.484 44.9596 52.389C45.0546 52.2941 45.1677 52.2192 45.2922 52.1689C45.4167 52.1186 45.5501 52.0939 45.6844 52.0963C45.8187 52.0987 45.9511 52.128 46.0737 52.1827C46.1964 52.2374 46.3068 52.3162 46.3984 52.4144L49.1904 55.2051L53.821 49.3051C53.8294 49.2948 53.8383 49.285 53.8477 49.2757H53.8464Z" fill="white"/>
<path d="M59.1344 58.2275L59.1347 58.2273L65.5349 54.0458L65.5353 54.0455L75.5 47.5498V72.7178C75.5 75.3121 73.3772 77.4401 70.797 77.4401H29.203C26.6228 77.4401 24.5 75.3121 24.5 72.7178V47.5494L33.7905 53.6011L33.791 53.6015L39.4363 57.288L39.4365 57.2881L49.7318 64.0053L50.005 64.1835L50.2782 64.0053L59.1344 58.2275Z" fill="white" stroke="#424242"/>
</svg>
