<svg width="152" height="60" viewBox="0 0 152 60" fill="none" xmlns="http://www.w3.org/2000/svg">
<path d="M26.8482 26.6289H40.3296C39.7743 30.4616 37.992 33.5808 34.9828 35.9845C31.9736 38.3901 28.2947 39.5911 23.9441 39.5911C20.3608 39.5911 17.0646 38.7874 14.0554 37.1818C11.0462 35.5763 8.68989 33.3675 6.98456 30.5591C5.27922 27.7507 4.42562 24.786 4.42562 21.6687C4.42562 18.6249 5.24921 15.7375 6.89826 13.0027C8.54544 10.2697 10.8699 8.10323 13.8697 6.50686C16.8695 4.91049 20.025 4.11231 23.3419 4.11231C26.0059 4.11231 28.7412 4.69899 31.5496 5.8742C34.3562 7.04757 36.9396 8.77268 39.2978 11.0459L42.5752 8.00208C39.566 5.20292 36.4818 3.16883 33.3188 1.90167C30.1557 0.632663 26.7826 0 23.1993 0C18.7718 0 14.8058 0.954512 11.2976 2.85986C7.79126 4.76704 5.03158 7.41172 3.01858 10.7939C1.00557 14.1761 0 17.8304 0 21.757C0 27.0371 1.75411 31.6865 5.26046 35.7068C9.82116 40.93 16.0121 43.5416 23.8315 43.5416C30.2702 43.5416 35.4124 41.6583 39.2546 37.8917C43.0968 34.1252 45.0366 29.0381 45.076 22.6324H26.8482V26.6289Z" fill="#F8BEC2"/>
<path d="M145.916 1.04089H145.239L128.212 35.0557L111.021 1.04089H110.335L104.575 40.4701L85.8202 1.04089H84.7846L66.7332 38.4931H51.4602V1.04089H47.2354V42.495H64.8046H67.7313H69.5192L76.106 28.856H94.3225L100.973 42.495H104.279H105.538H108.361L112.515 12.6238L127.645 42.495H128.726L143.678 12.8481L147.856 42.495H152L145.916 1.04089ZM78.0402 24.854L85.2855 9.84852L92.4971 24.854H78.0402Z" fill="#F8BEC2"/>
<path d="M48.5185 59.761C48.4547 59.6984 48.4229 59.6194 48.4229 59.5219V50.0834C48.4229 49.9768 48.4547 49.894 48.5185 49.8296C48.5823 49.7653 48.663 49.7358 48.7624 49.7358H52.8016C53.854 49.7358 54.6439 49.9823 55.1748 50.4733C55.7057 50.9644 55.9702 51.6099 55.9702 52.4099C55.9702 52.9488 55.8445 53.3976 55.595 53.7544C55.3436 54.1111 55.0472 54.3705 54.7039 54.5341C55.1166 54.7365 55.4656 55.0491 55.7507 55.4739C56.0359 55.8988 56.1785 56.3843 56.1785 56.9342C56.1785 57.4731 56.0528 57.966 55.8033 58.4092C55.5519 58.8524 55.1823 59.2037 54.6908 59.4649C54.1992 59.7242 53.6102 59.8548 52.9216 59.8548H48.7643C48.663 59.8548 48.5823 59.8235 48.5185 59.761ZM52.5802 54.0155C53.1993 54.0155 53.6739 53.8757 54.0022 53.5962C54.3324 53.3166 54.4956 52.9267 54.4956 52.4247C54.4956 51.9336 54.3343 51.5566 54.0097 51.2973C53.6852 51.0379 53.2087 50.9074 52.5802 50.9074H49.8674V54.0155H52.5802ZM52.7265 58.6851C53.3456 58.6851 53.8296 58.5214 54.1786 58.194C54.5275 57.8667 54.702 57.4473 54.702 56.9361C54.702 56.4064 54.5275 55.9797 54.1786 55.656C53.8296 55.3342 53.3456 55.1723 52.7265 55.1723H49.8674V58.6851H52.7265Z" fill="#F8BEC2"/>
<path d="M58.3659 59.761C58.3022 59.6984 58.2703 59.6194 58.2703 59.5219V50.0834C58.2703 49.9768 58.3022 49.894 58.3659 49.8296C58.4297 49.7653 58.5104 49.7358 58.6098 49.7358H64.6995C64.7971 49.7358 64.8777 49.7671 64.9434 49.8296C65.0072 49.8922 65.0391 49.9768 65.0391 50.0834V50.6333C65.0391 50.729 65.0091 50.8099 64.9509 50.8724C64.8927 50.935 64.8083 50.9662 64.6995 50.9662H59.6867V54.1314H64.3749C64.4725 54.1314 64.5551 54.1626 64.6188 54.2252C64.6826 54.2877 64.7145 54.3723 64.7145 54.479V55.0142C64.7145 55.1098 64.6826 55.1907 64.6188 55.2532C64.5551 55.3158 64.4744 55.347 64.3749 55.347H59.6867V58.6281H64.8177C64.9265 58.6281 65.0091 58.6575 65.0691 58.7145C65.1272 58.7715 65.1573 58.8543 65.1573 58.9609V59.5237C65.1573 59.6194 65.1254 59.7003 65.0616 59.7628C64.9978 59.8253 64.9171 59.8566 64.8177 59.8566H58.6098C58.5123 59.8548 58.4297 59.8235 58.3659 59.761Z" fill="#F8BEC2"/>
<path d="M66.3055 59.7683C66.2473 59.7113 66.2173 59.6433 66.2173 59.566C66.2173 59.4888 66.2229 59.4354 66.2323 59.406L69.8887 50.054C69.9675 49.8425 70.1251 49.7358 70.3596 49.7358H71.3614C71.5978 49.7358 71.7535 49.8425 71.8323 50.054L75.4737 59.406L75.5038 59.566C75.5038 59.6433 75.4737 59.7095 75.4156 59.7683C75.3574 59.8253 75.288 59.8548 75.2092 59.8548H74.4569C74.3481 59.8548 74.2656 59.829 74.2055 59.7757C74.1474 59.7224 74.108 59.6672 74.0873 59.6102L73.2788 57.5577H68.4423L67.6318 59.6102C67.6112 59.6672 67.5699 59.7242 67.5061 59.7757C67.4423 59.829 67.3617 59.8548 67.2623 59.8548H66.5099C66.433 59.8548 66.3655 59.8253 66.3055 59.7683ZM72.851 56.3144L70.8605 51.1832L68.87 56.3144H72.851Z" fill="#F8BEC2"/>
<path d="M77.8433 58.9959C77.151 58.3264 76.804 57.3112 76.804 55.954V50.0853C76.804 49.9786 76.8358 49.8958 76.8996 49.8315C76.9634 49.7689 77.0441 49.7377 77.1435 49.7377H77.8958C78.0046 49.7377 78.0891 49.7689 78.1547 49.8315C78.2185 49.894 78.2504 49.9786 78.2504 50.0853V55.9815C78.2504 56.9066 78.4718 57.6 78.9145 58.0634C79.3573 58.5251 79.9801 58.7568 80.7868 58.7568C81.5917 58.7568 82.2164 58.5251 82.6591 58.0634C83.1019 57.6 83.3233 56.9066 83.3233 55.9815V50.0853C83.3233 49.9786 83.3551 49.8958 83.4189 49.8315C83.4827 49.7671 83.5634 49.7377 83.6628 49.7377H84.4301C84.5277 49.7377 84.6084 49.7708 84.674 49.8388C84.7378 49.9069 84.7697 49.9878 84.7697 50.0853V55.954C84.7697 57.3131 84.4226 58.3264 83.7304 58.9959C83.0381 59.6653 82.0569 60.0001 80.7887 60.0001C79.5205 60.0001 78.5356 59.6653 77.8433 58.9959Z" fill="#F8BEC2"/>
<path d="M89.578 59.761C89.5142 59.6984 89.4823 59.6194 89.4823 59.5219V51.0232H86.6513C86.5538 51.0232 86.4712 50.992 86.4074 50.9294C86.3437 50.8669 86.3118 50.7878 86.3118 50.6904V50.0834C86.3118 49.9878 86.3437 49.905 86.4074 49.837C86.4712 49.7689 86.5519 49.7358 86.6513 49.7358H93.7578C93.8666 49.7358 93.9511 49.7671 94.0167 49.8296C94.0805 49.8922 94.1124 49.9768 94.1124 50.0834V50.6904C94.1124 50.786 94.0786 50.8669 94.0092 50.9294C93.9398 50.992 93.8573 51.0232 93.7578 51.0232H90.9419V59.5219C90.9419 59.6175 90.9062 59.6984 90.8387 59.761C90.7693 59.8235 90.6867 59.8548 90.5873 59.8548H89.82C89.7224 59.8548 89.6418 59.8235 89.578 59.761Z" fill="#F8BEC2"/>
<path d="M98.6149 59.761C98.5511 59.6984 98.5192 59.6193 98.5192 59.5219V56.1103L94.9659 50.214C94.9659 50.1956 94.9603 50.1662 94.9509 50.1276C94.9303 50.0889 94.9209 50.0558 94.9209 50.0264C94.9209 49.9492 94.9509 49.883 95.0091 49.8241C95.0672 49.7653 95.1366 49.7377 95.2154 49.7377H95.9827C96.1497 49.7377 96.2773 49.8204 96.3655 49.9841L99.2396 54.6666L102.114 49.9841C102.223 49.8204 102.354 49.7377 102.511 49.7377H103.264C103.352 49.7377 103.425 49.7671 103.485 49.8241C103.543 49.8811 103.573 49.9492 103.573 50.0264C103.573 50.0742 103.553 50.1368 103.515 50.214L99.9769 56.1103V59.5219C99.9769 59.6175 99.9431 59.6984 99.8737 59.761C99.8043 59.8235 99.7217 59.8548 99.6223 59.8548H98.855C98.7612 59.8548 98.6786 59.8235 98.6149 59.761Z" fill="#F8BEC2"/>
</svg>
